<?xml version="1.0" standalone="no"?>
<!DOCTYPE svg PUBLIC "-//W3C//DTD SVG 20010904//EN"
 "http://www.w3.org/TR/2001/REC-SVG-20010904/DTD/svg10.dtd">
<svg version="1.0" xmlns="http://www.w3.org/2000/svg"
 width="818.000000pt" height="818.000000pt" viewBox="0 0 818.000000 818.000000"
 preserveAspectRatio="xMidYMid meet">
<metadata>
Created by potrace 1.14, written by Peter Selinger 2001-2017
</metadata>
<g transform="translate(0.000000,818.000000) scale(0.100000,-0.100000)"
fill="#000000" stroke="none">
<path d="M1247 6559 c-122 -14 -281 -92 -380 -187 -47 -45 -119 -151 -147
-218 -78 -181 -64 -421 34 -594 140 -248 436 -385 712 -330 259 51 455 232
524 483 36 132 31 280 -14 405 -56 156 -183 300 -326 370 -135 66 -258 88
-403 71z"/>
<path d="M4045 6555 c-118 -21 -231 -75 -334 -160 -12 -11 -68 -76 -124 -145
-138 -171 -181 -224 -187 -230 -8 -7 -391 -477 -415 -509 -11 -14 -72 -89
-135 -167 -63 -77 -131 -160 -150 -184 -19 -24 -47 -58 -61 -75 -14 -16 -74
-91 -134 -165 -60 -74 -264 -326 -454 -560 -189 -234 -401 -495 -470 -580 -69
-85 -128 -157 -131 -160 -3 -3 -50 -61 -104 -130 -55 -69 -102 -127 -105 -130
-11 -9 -404 -498 -453 -563 -26 -34 -47 -70 -48 -79 0 -10 -3 -18 -8 -18 -7 0
-47 -119 -57 -175 -7 -38 -7 -174 1 -223 36 -231 232 -458 454 -527 72 -22 90
-25 184 -30 223 -12 433 89 574 275 31 40 201 250 313 386 19 22 50 60 69 84
52 65 229 282 248 305 16 19 169 207 596 735 105 129 198 244 208 255 9 11
157 193 328 405 171 212 326 403 344 425 38 46 94 115 186 230 35 44 67 82 70
85 3 3 88 109 190 235 101 127 209 259 238 294 189 224 209 558 47 802 -77
114 -161 186 -289 244 -123 56 -256 73 -391 50z"/>
<path d="M6849 6550 c-221 -45 -401 -191 -487 -397 -73 -174 -66 -396 18 -563
95 -191 291 -333 501 -366 43 -6 198 -6 208 1 5 2 26 7 47 11 22 3 66 17 99
30 216 88 378 291 414 521 8 55 7 184 -3 228 -20 95 -72 216 -117 274 -38 49
-114 123 -154 151 -55 37 -135 81 -135 74 0 -4 -6 -2 -12 4 -7 5 -32 15 -56
22 -106 28 -216 31 -323 10z"/>
<path d="M5640 4997 c-3 -3 -25 -7 -50 -10 -77 -10 -152 -39 -240 -95 -72 -45
-127 -98 -208 -202 -37 -47 -74 -92 -82 -101 -8 -9 -22 -25 -30 -35 -8 -10
-42 -53 -75 -94 -33 -41 -62 -77 -66 -80 -3 -3 -44 -52 -90 -110 -47 -58 -193
-238 -325 -400 -132 -162 -374 -461 -539 -665 -164 -203 -301 -372 -305 -375
-19 -15 -84 -136 -105 -196 -98 -286 2 -593 252 -771 64 -45 176 -95 243 -108
77 -14 219 -13 287 2 158 36 303 129 398 258 27 36 112 142 125 155 3 3 23 28
45 55 22 28 47 59 57 70 46 55 178 217 293 360 71 88 134 165 140 171 5 6 99
122 208 257 109 135 203 252 210 259 7 7 55 67 107 133 52 66 97 122 100 125
5 4 152 186 185 228 5 7 17 21 25 30 71 81 120 163 149 248 100 300 -10 618
-274 786 -81 52 -134 74 -219 92 -62 13 -207 21 -216 13z"/>
</g>
</svg>
